<svg id="Layer_1" height="512" viewBox="0 0 512 512" width="512" xmlns="http://www.w3.org/2000/svg" data-name="Layer 1"><path d="m411.26 345.74a155.4 155.4 0 0 1 -5.83 42.31l-4.46.45c-.36.04-.73.06-1.09.08l-3.76.17a26.094 26.094 0 0 0 -22.84 15.67l-.96 2.19a20.581 20.581 0 0 1 -18.85 12.31h-16.01a7.411 7.411 0 0 1 -7.4-6.7l-.64-6.4a25.991 25.991 0 0 0 -11.83-19.34 9.144 9.144 0 0 1 -4.2-7.71v-6.41a12.575 12.575 0 0 1 4.24-9.41l27.35-24.16a26.961 26.961 0 0 0 7.94-27.96 27.463 27.463 0 0 0 -22.92-19.28l-2.76-.34a13.534 13.534 0 0 1 -8.52-4.51 7.629 7.629 0 0 1 -.92-8.76l5.73-9.79a196.959 196.959 0 0 1 24.9-33.72l6.18-8.62a154.951 154.951 0 0 1 56.65 119.93z" fill="#a0eaea"/><path d="m263.35 389.72a5.409 5.409 0 0 1 1.2 4.48 5.711 5.711 0 0 1 -2.23 3.5l-15.78 12.11a25.945 25.945 0 0 0 -9.01 12.96l-5.32 17.27a10.963 10.963 0 0 1 -2.04 3.75l-5.76 6.93a29.587 29.587 0 0 0 -6.31 15.74 8.228 8.228 0 0 1 -5.01 6.66 4.144 4.144 0 0 1 -4.35-.71 4.338 4.338 0 0 1 -1.37-2.56l-4.87-29.24a22.684 22.684 0 0 0 -4.33-10.01l-17.93-23.51a20.718 20.718 0 0 1 -3.52-7.08l-5.92-21.34a22.371 22.371 0 0 0 -15.67-15.61l-1.28-.36a16.549 16.549 0 0 1 -7-3.92l-11.03-10.38a24.945 24.945 0 0 1 -4.53-5.74 24.405 24.405 0 0 0 -25.9-11.65l-2.11.42-1.87-.17a155.31 155.31 0 0 1 82.55-123.09l11.24 8.46 8.88 6.67a48.069 48.069 0 0 0 4.65 3.09 48.689 48.689 0 0 1 15.43 14.29l10.53 15.19a16.556 16.556 0 0 1 -.49 19.54l-4.89 6.34a11.272 11.272 0 0 1 -10.32 4.29l-5.54-.71a20.029 20.029 0 0 0 -19.84 9.77 11.469 11.469 0 0 1 -11.35 5.47l-12.69-1.61a20.679 20.679 0 0 0 -19.85 8.99 18.7 18.7 0 0 0 -.11 20.42l8.27 13.05a17.089 17.089 0 0 0 22.52 5.92l8.7-4.66a16.1 16.1 0 0 1 15.79.38l16.52 9.91a3.959 3.959 0 0 0 2.12.58c7.89-.08 15.15 4.3 19.75 10.71l7.69 10.72q.855 1.185 1.8 2.31z" fill="#a0eaea"/><path d="m400.97 388.5c-.36.04-.73.06-1.09.08l-3.76.17a26.094 26.094 0 0 0 -22.84 15.67l-.96 2.19a20.581 20.581 0 0 1 -18.85 12.31h-16.01a7.411 7.411 0 0 1 -7.4-6.7l-.64-6.4a25.991 25.991 0 0 0 -11.83-19.34 9.144 9.144 0 0 1 -4.2-7.71v-6.41a12.575 12.575 0 0 1 4.24-9.41l27.35-24.16a26.961 26.961 0 0 0 7.94-27.96 27.463 27.463 0 0 0 -22.92-19.28l-2.76-.34a13.534 13.534 0 0 1 -8.52-4.51 7.629 7.629 0 0 1 -.92-8.76l5.73-9.79a196.959 196.959 0 0 1 24.9-33.72l6.18-8.62a154.549 154.549 0 0 0 -89.41-35.06l-5.85.48c-.04-.24-.09-.48-.14-.72q-1.6-.03-3.21-.03a154.562 154.562 0 0 0 -72.04 17.69l11.24 8.46 8.88 6.67a48.069 48.069 0 0 0 4.65 3.09 48.689 48.689 0 0 1 15.43 14.29l10.53 15.19a16.556 16.556 0 0 1 -.49 19.54l-4.89 6.34a11.272 11.272 0 0 1 -10.32 4.29l-5.54-.71a20.029 20.029 0 0 0 -19.84 9.77 11.469 11.469 0 0 1 -11.35 5.47l-12.69-1.61a20.679 20.679 0 0 0 -19.85 8.99 18.7 18.7 0 0 0 -.11 20.42l8.27 13.05a17.089 17.089 0 0 0 22.52 5.92l8.7-4.66a16.1 16.1 0 0 1 15.79.38l16.52 9.91a3.959 3.959 0 0 0 2.12.58c7.89-.08 15.15 4.3 19.75 10.71l7.69 10.72q.855 1.185 1.8 2.31l10.58 12.43a5.409 5.409 0 0 1 1.2 4.48 5.711 5.711 0 0 1 -2.23 3.5l-15.78 12.11a25.945 25.945 0 0 0 -9.01 12.96l-5.32 17.27a10.963 10.963 0 0 1 -2.04 3.75l-5.76 6.93a29.587 29.587 0 0 0 -6.31 15.74 8.228 8.228 0 0 1 -5.01 6.66 4.144 4.144 0 0 1 -4.35-.71 4.338 4.338 0 0 1 -1.37-2.56l-4.87-29.24a22.684 22.684 0 0 0 -4.33-10.01l-17.93-23.51a20.718 20.718 0 0 1 -3.52-7.08l-5.92-21.34a22.371 22.371 0 0 0 -15.67-15.61l-1.28-.36a16.549 16.549 0 0 1 -7-3.92l-11.03-10.38a24.945 24.945 0 0 1 -4.53-5.74 24.405 24.405 0 0 0 -25.9-11.65l-2.11.42-1.87-.17q-.66 7.155-.67 14.48a155.286 155.286 0 0 0 304.69 42.31z" fill="#4689d3"/><path d="m284.14 153.97-.93-.06a248.426 248.426 0 0 1 5.98-35.49c5.44-21.24 19.41-37.7 37.07-43.93l62.63-22.07c-2.54 59.53-35.09 110.26-93.79 102.23z" fill="#4ca987"/><path d="m242.16 137.05-.44-.06c-32.86-4.6-72.59-26.3-77.91-75.14l-6.39-50.85c49.29 2.16 87.8 52.21 86.01 111.78l-.43 14.38c-.28-.04-.56-.07-.84-.11z" fill="#5fcda4"/><path d="m193.81 61.85-5.364-42.686a76.3 76.3 0 0 0 -31.026-8.164l6.39 50.85c5.32 48.84 45.05 70.54 77.91 75.14l.44.06c.28.04.56.07.84.11l.25-8.348c-24.036-10.795-45.618-31.874-49.44-66.962z" fill="#52a080"/><path d="m198.119 218.823a151.637 151.637 0 0 1 84.881-25.823c.357 0 .71.011 1.066.013a155.574 155.574 0 0 0 -18.866-2.263l-5.85.48c-.04-.24-.09-.48-.14-.72q-1.6-.03-3.21-.03a154.562 154.562 0 0 0 -72.04 17.69l11.24 8.46z" fill="#3d78ad"/><path d="m283 497.69a152.345 152.345 0 0 1 -152.345-152.345c0-1.21.018-2.415.046-3.618a24.41 24.41 0 0 0 -25.311-10.717l-2.11.42-1.87-.17q-.66 7.155-.67 14.48a155.388 155.388 0 0 0 187.819 151.838c-1.846.067-3.697.112-5.559.112z" fill="#3d78ad"/><path d="m198.119 218.823-2.919-2.193-11.24-8.46a155.31 155.31 0 0 0 -82.55 123.09l1.87.17 2.11-.42a24.41 24.41 0 0 1 25.31 10.717 152.2 152.2 0 0 1 67.419-122.904z" fill="#83bab9"/><path d="m342.96 99.267a6 6 0 0 0 -8.477-.379l-46.908 42.893a96.428 96.428 0 0 0 -24.78 36.79 227.426 227.426 0 0 0 -34.059-77l-23.6-33.92a6 6 0 1 0 -9.849 6.855l23.6 33.919c16.953 24.363 28.905 53.376 34.561 83.9q1.987 10.728 3.249 20.909a71.819 71.819 0 0 0 1.014 9.386c.779 8.319 1.189 16.322 1.189 23.927a6 6 0 1 0 12 0c0-7.886-.42-16.166-1.216-24.756-.007-.174-.023-.349-.046-.524-.282-2.985-.6-6-.973-9.059a74.694 74.694 0 0 1 4.706-27.661 84.578 84.578 0 0 1 22.3-33.91l46.908-42.894a6 6 0 0 0 .381-8.476z" fill="#775c58"/></svg>