<svg height="512" viewBox="0 0 64 64" width="512" xmlns="http://www.w3.org/2000/svg"><g id="Coffee_Cup-Ecology-Hot_Drink-Paper_Cup-Cup" data-name="Coffee Cup-Ecology-Hot Drink-Paper Cup-Cup"><path d="m48 17-.18 2-3.09 34-.18 2-.55 6h-24l-.55-6-.18-2-3.09-34-.18-2z" fill="#c49a6c"/><path d="m49.1 27-2.36 26h-29.48l-2.36-26z" fill="#ffa733"/><path d="m51 11v6h-3-32-3v-6h3 32z" fill="#a97c50"/><path d="m46 3 2 8h-32l2-8z" fill="#c49a6c"/><path d="m48 17-.18 2h-31.64l-.18-2z" fill="#b38354"/><path d="m44.73 53-.18 2h-25.1l-.18-2z" fill="#b38354"/><path d="m31 40h2v7h-2z" fill="#009986"/><g fill="#00ccb3"><path d="m32 38v2h-2a4 4 0 0 1 -4-4v-2h2a4 4 0 0 1 4 4z"/><path d="m38 36v2a4 4 0 0 1 -4 4h-2v-2a4 4 0 0 1 4-4z"/></g></g></svg>