<svg id="Layer_1" height="512" viewBox="0 0 512 512" width="512" xmlns="http://www.w3.org/2000/svg" data-name="Layer 1"><path d="m211.58 470.07h88.84a34.613 34.613 0 0 1 -34.41 30.93h-20.02a34.613 34.613 0 0 1 -34.41-30.93z" fill="#56568c"/><path d="m309.93 418.01h-107.86a12.208 12.208 0 0 0 -12.21 12.21v1.61a12.2 12.2 0 0 0 12.21 12.21h107.86a12.2 12.2 0 0 0 12.21-12.21v-1.61a12.208 12.208 0 0 0 -12.21-12.21z" fill="#626972"/><path d="m378.88 223.4c-1.7-65.94-55.77-119.07-121.73-119.67a122.919 122.919 0 0 0 -84.28 213.46 85.544 85.544 0 0 1 20.61 29.04 87.911 87.911 0 0 1 7.21 34.92v10.83h110.62v-10.93a88.189 88.189 0 0 1 28.47-64.46 122.645 122.645 0 0 0 39.1-93.19z" fill="#f3ce7d"/><path d="m233.4 297.8a2.909 2.909 0 0 1 -.31-.04c-23.97-3.35-52.93-19.17-56.8-54.77l-4.67-37.08c35.94 1.58 64.01 38.06 62.71 81.49l-.32 10.49c-.21-.03-.41-.05-.61-.09z" fill="#5fcda4"/><path d="m264.01 310.14-.68-.04a181.952 181.952 0 0 1 4.36-25.88c3.97-15.48 14.15-27.48 27.02-32.02l45.67-16.09c-1.86 43.4-25.59 80.38-68.38 74.53z" fill="#4ca987"/><path d="m304.6 444h-97.2a12.406 12.406 0 0 0 -12.4 12.25v1.61a12.306 12.306 0 0 0 12.4 12.14h97.2a12.306 12.306 0 0 0 12.4-12.14v-1.61a12.406 12.406 0 0 0 -12.4-12.25z" fill="#7d8696"/><path d="m241.58 470h-30a34.346 34.346 0 0 0 34.41 31h20.02a34.7 34.7 0 0 0 4.99-.4 34.563 34.563 0 0 1 -29.42-30.6z" fill="#46466d"/><path d="m220 431.83v-1.61a12.1 12.1 0 0 1 12.07-12.22h-30a12.1 12.1 0 0 0 -12.07 12.22v1.61a12.049 12.049 0 0 0 12.07 12.17h30a12.049 12.049 0 0 1 -12.07-12.17z" fill="#4f5359"/><path d="m231 381.15a88.048 88.048 0 0 0 -7.365-34.92 85.776 85.776 0 0 0 -20.687-29.04 122.9 122.9 0 0 1 68.029-212.548 122.919 122.919 0 0 0 -98.1 212.548 85.994 85.994 0 0 1 20.763 29.04 88.047 88.047 0 0 1 7.36 34.92v10.85h30z" fill="#c4a66a"/><path d="m225 457.86v-1.61a12.406 12.406 0 0 1 12.4-12.25h-30a12.406 12.406 0 0 0 -12.4 12.25v1.61a12.306 12.306 0 0 0 12.4 12.14h30a12.306 12.306 0 0 1 -12.4-12.14z" fill="#626972"/><g fill="#f3ce7d"><path d="m256 63.8a6 6 0 0 1 -6-6v-46.8a6 6 0 0 1 12 0v46.8a6 6 0 0 1 -6 6z"/><path d="m478.985 239.985h-46.8a6 6 0 1 1 0-12h46.8a6 6 0 0 1 0 12z"/><path d="m79.811 239.985h-46.8a6 6 0 1 1 0-12h46.8a6 6 0 1 1 0 12z"/><path d="m384.011 111.974a6 6 0 0 1 -4.242-10.243l36.516-36.516a6 6 0 0 1 8.486 8.486l-36.517 36.516a5.984 5.984 0 0 1 -4.243 1.757z"/><path d="m127.989 111.974a5.984 5.984 0 0 1 -4.243-1.757l-36.517-36.517a6 6 0 0 1 8.486-8.486l36.516 36.516a6 6 0 0 1 -4.242 10.243z"/></g><path d="m308.09 269.165a6 6 0 0 0 -8.476-.379l-34.2 31.271a71.392 71.392 0 0 0 -16.583 22.894 166.721 166.721 0 0 0 -23.881-51.94l-17.207-24.728a6 6 0 1 0 -9.85 6.854l17.207 24.729a156.511 156.511 0 0 1 24.934 60.534c.817 4.406 1.588 11.193 2.229 18.7a62.473 62.473 0 0 0 .775 10.379c.585 9.037.943 18.052.944 24.5a6 6 0 0 0 12 0c0-8.283-.644-22.675-1.732-35.6.072-8.45 1.527-18.054 3.438-23.4a60.034 60.034 0 0 1 15.826-24.069l34.2-31.27a6 6 0 0 0 .376-8.475z" fill="#775c58"/><path d="m167.376 190.869a6 6 0 0 1 -5.421-8.563 104.53 104.53 0 0 1 65.489-55.632 6 6 0 0 1 3.279 11.544 92.531 92.531 0 0 0 -57.918 49.212 6 6 0 0 1 -5.429 3.439z" fill="#f4f8fc"/><path d="m249.93 134.909a6 6 0 0 1 -.357-11.989c2.453-.148 4.945-.213 7.4-.188h.176a6 6 0 0 1 0 12h-.263c-2.21-.022-4.416.036-6.591.167-.121.007-.244.01-.365.01z" fill="#f4f8fc"/><path d="m315.26 392h-118.52c-6.75 0-11.74 5.45-11.74 12.19v1.61c0 6.74 4.99 12.2 11.74 12.2h118.52c6.75 0 11.74-5.46 11.74-12.2v-1.61c0-6.74-4.99-12.19-11.74-12.19z" fill="#7d8696"/><path d="m215 405.8v-1.61c0-6.74 4.99-12.19 11.74-12.19h-30c-6.75 0-11.74 5.45-11.74 12.19v1.61c0 6.74 4.99 12.2 11.74 12.2h30c-6.75 0-11.74-5.46-11.74-12.2z" fill="#626972"/></svg>