<svg height="512" viewBox="0 0 64 64" width="512" xmlns="http://www.w3.org/2000/svg"><g id="Straw-No-Ban-Plastic-Pollution"><path d="m34 49-3.94.69-.19-1.08-1.39-7.88-2.59-14.67 2.55-.45 1.39-.25 1.39 7.86 1.38 7.87z" fill="#ffa733"/><path d="m32.6 41.09-2.73 7.52-1.39-7.88 2.74-7.51z" fill="#ff9811"/><path d="m31.45 27.08-8.21 22.55 3.76 1.37 8.2-22.55z" fill="#ffb655"/><path d="m29.83 25.36-3.94.7-.58-3.29c-.02-.11-.03-.23-.05-.34a4.387 4.387 0 0 1 .08-1.2l3.97 1.18z" fill="#ee8700"/><path d="m34.99 14.3-4.06 5.79-3.47-2.43 4.05-5.79z" fill="#ff9811"/><path d="m30.93 20.09-1.62 2.32-3.97-1.18a3.93 3.93 0 0 1 .64-1.45l1.48-2.12z" fill="#ffa733"/><path d="m37 20.59 1.8 3.84-2.57 1.2-2.85-3.01a4.121 4.121 0 0 1 1.28-.94z" fill="#ffc477"/><path d="m43.41 17.6 1.8 3.84-6.41 2.99-1.8-3.84z" fill="#ffb655"/><path d="m33.38 22.62 2.85 3.01-1.02 2.82h-.01l-3.75-1.37 1.14-3.14a4.107 4.107 0 0 1 .79-1.32z" fill="#ffa733"/><path d="m32 3a29 29 0 1 0 29 29 29 29 0 0 0 -29-29zm0 54a24.991 24.991 0 0 1 -19.03-41.2l35.23 35.23a24.882 24.882 0 0 1 -16.2 5.97zm19.03-8.8-35.23-35.23a24.991 24.991 0 0 1 35.23 35.23z" fill="#ff5023"/></g></svg>